<!-- Generator: Adobe Illustrator 19.0.0, SVG Export Plug-In  -->
<svg version="1.1"
   xmlns="http://www.w3.org/2000/svg" xmlns:xlink="http://www.w3.org/1999/xlink" xmlns:a="http://ns.adobe.com/AdobeSVGViewerExtensions/3.0/"
   x="0px" y="0px" width="20px" height="20px" viewBox="0 0 20 20" enable-background="new 0 0 20 20" xml:space="preserve">
<defs>
</defs>
<rect display="none" fill="none" width="20" height="20"/>
<path fill="#030303" d="M2.18,1.66C2.9,0.93,4.92,0.85,5.09,1.2c0.13,0.26,1.96,4.61,1.98,4.99c0.02,0.38-1.28,1.69-1.66,2.06
  c-0.38,0.38,1.79,2.94,2.6,3.74c0.8,0.81,3.36,2.97,3.74,2.6c0.38-0.38,1.68-1.68,2.06-1.67c0.38,0.02,4.64,1.83,4.99,1.98
  c0.37,0.16,0.26,2.19-0.46,2.91C17.99,18.16,16.87,19,15,19c-3.72,0-7.24-3.12-9.07-4.95C4.11,12.23,1,8.77,1,5
  C1,3.12,1.84,2,2.18,1.66L2.18,1.66z"/>
<path fill="none" stroke="#030303" stroke-linecap="round" d="M10,2.5c4.14,0,7.5,3.36,7.5,7.5 M14.5,10c0-2.49-2.01-4.5-4.5-4.5"/>
</svg>
