<!-- Generator: Adobe Illustrator 19.0.0, SVG Export Plug-In  -->
<svg version="1.1"
   xmlns="http://www.w3.org/2000/svg" xmlns:xlink="http://www.w3.org/1999/xlink" xmlns:a="http://ns.adobe.com/AdobeSVGViewerExtensions/3.0/"
   x="0px" y="0px" width="20px" height="20px" viewBox="0 0 20 20" enable-background="new 0 0 20 20" xml:space="preserve">
<defs>
</defs>
<rect display="none" fill="none" width="20" height="20"/>
<g display="none">
  <g display="inline">
    <path fill="#030303" d="M19,9c0-4.42-4.03-8-9-8S1,4.58,1,9s4.03,8,9,8c1.07,0,2.09-0.17,3.04-0.48L18,19l-1.49-4.48
      C18.05,13.08,19,11.14,19,9z M5,10.5c-0.83,0-1.5-0.67-1.5-1.5S4.17,7.5,5,7.5S6.5,8.17,6.5,9S5.83,10.5,5,10.5z M10,10.5
      c-0.83,0-1.5-0.67-1.5-1.5S9.17,7.5,10,7.5s1.5,0.67,1.5,1.5S10.83,10.5,10,10.5z M15,10.5c-0.83,0-1.5-0.67-1.5-1.5
      s0.67-1.5,1.5-1.5s1.5,0.67,1.5,1.5S15.83,10.5,15,10.5z"/>
  </g>
</g>
<path fill="#030303" d="M19,9c0-4.42-4.03-8-9-8S1,4.58,1,9s4.03,8,9,8c0.83,0,1.63-0.1,2.39-0.29c0.42-0.11,0.86-0.08,1.25,0.12
  C14.97,17.48,18,19,18,19l-1.34-4.02c-0.1-0.29-0.01-0.59,0.19-0.81C18.19,12.78,19,10.97,19,9z M5,10.5c-0.83,0-1.5-0.67-1.5-1.5
  S4.17,7.5,5,7.5S6.5,8.17,6.5,9S5.83,10.5,5,10.5z M10,10.5c-0.83,0-1.5-0.67-1.5-1.5S9.17,7.5,10,7.5s1.5,0.67,1.5,1.5
  S10.83,10.5,10,10.5z M15,10.5c-0.83,0-1.5-0.67-1.5-1.5s0.67-1.5,1.5-1.5s1.5,0.67,1.5,1.5S15.83,10.5,15,10.5z"/>
</svg>
